<svg viewBox="0 0 66 66" fill="none" xmlns="http://www.w3.org/2000/svg">
<path fill-rule="evenodd" clip-rule="evenodd" d="M20.9976 58.279C17.5287 57.2556 14.3214 55.622 11.5 53.5026C16.9733 60.7885 25.687 65.5013 35.5013 65.5013C52.0698 65.5013 65.5013 52.0698 65.5013 35.5013C65.5013 25.687 60.7885 16.9733 53.5026 11.5C55.622 14.3214 57.2556 17.5287 58.279 20.9976C60.9522 25.187 62.5013 30.1632 62.5013 35.5013C62.5013 50.413 50.413 62.5013 35.5013 62.5013C30.1632 62.5013 25.187 60.9522 20.9976 58.279Z" fill="currentColor"/>
<path fill-rule="evenodd" clip-rule="evenodd" d="M30.5 3.5C15.5883 3.5 3.5 15.5883 3.5 30.5C3.5 45.4117 15.5883 57.5 30.5 57.5C45.4117 57.5 57.5 45.4117 57.5 30.5C57.5 15.5883 45.4117 3.5 30.5 3.5ZM0.5 30.5C0.5 13.9315 13.9315 0.5 30.5 0.5C47.0685 0.5 60.5 13.9315 60.5 30.5C60.5 47.0685 47.0685 60.5 30.5 60.5C13.9315 60.5 0.5 47.0685 0.5 30.5Z" fill="currentColor"/>
<path fill-rule="evenodd" clip-rule="evenodd" d="M55.5 55.5L50.5 50.5L51.9142 49.0858L56.9142 54.0858L55.5 55.5Z" fill="currentColor"/>
<path fill-rule="evenodd" clip-rule="evenodd" d="M58.5 50.5L53.5 45.5L54.9142 44.0858L59.9142 49.0858L58.5 50.5Z" fill="currentColor"/>
<path fill-rule="evenodd" clip-rule="evenodd" d="M62.5 38.5L57.5 33.5L58.9142 32.0858L63.9142 37.0858L62.5 38.5Z" fill="currentColor"/>
<path fill-rule="evenodd" clip-rule="evenodd" d="M62.5 31.5L57.5 26.5L58.9142 25.0858L63.9142 30.0858L62.5 31.5Z" fill="currentColor"/>
<path fill-rule="evenodd" clip-rule="evenodd" d="M32.5 64.5L27.5 59.5L28.9142 58.0858L33.9142 63.0858L32.5 64.5Z" fill="currentColor"/>
<path fill-rule="evenodd" clip-rule="evenodd" d="M45.5 61.5L40.5 56.5L41.9142 55.0858L46.9142 60.0858L45.5 61.5Z" fill="currentColor"/>
<path fill-rule="evenodd" clip-rule="evenodd" d="M39.5 63.5L34.5 58.5L35.9142 57.0858L40.9142 62.0858L39.5 63.5Z" fill="currentColor"/>
<path fill-rule="evenodd" clip-rule="evenodd" d="M50.5 58.5L45.5 53.5L46.9142 52.0858L51.9142 57.0858L50.5 58.5Z" fill="currentColor"/>
<path fill-rule="evenodd" clip-rule="evenodd" d="M61.5 45.5L56.5 40.5L57.9142 39.0858L62.9142 44.0858L61.5 45.5Z" fill="currentColor"/>
<path fill-rule="evenodd" clip-rule="evenodd" d="M9.49995 50.5L15.5 56.5L14.7928 57.2071L8.79285 51.2071L9.49995 50.5Z" fill="currentColor"/>
<path fill-rule="evenodd" clip-rule="evenodd" d="M55.5001 14.5L51.5001 10.5L52.2072 9.79285L56.2072 13.7928L55.5001 14.5Z" fill="currentColor"/>
<path fill-rule="evenodd" clip-rule="evenodd" d="M32.557 10.5V14.801C34.7617 14.9075 37.2239 15.3161 39.9436 16.0565L38.3675 21.8458C33.3716 20.4857 30.0907 20.6011 28.1402 21.1911C26.2732 21.7559 25.7252 22.6889 25.5757 23.2871C25.2636 24.5368 26.3867 27.5 30.6717 27.5C37.8399 27.5 43.0796 33.1984 41.5889 39.1668C40.8369 42.1775 38.4421 44.4926 34.9405 45.5519C34.1978 45.7766 33.4033 45.947 32.557 46.0605V50.5H28.557V46.1869C26.4114 46.0638 24.0256 45.6583 21.3999 44.9435L22.976 39.1542C27.9719 40.5143 31.2527 40.3989 33.2032 39.8089C35.0703 39.2441 35.6183 38.3111 35.7677 37.7129C36.0799 36.4632 34.9567 33.5 30.6717 33.5C23.5036 33.5 18.2639 27.8016 19.7546 21.8332C20.5065 18.8225 22.9013 16.5074 26.4029 15.4481C27.0782 15.2438 27.7962 15.0844 28.557 14.9719V10.5H32.557Z" fill="currentColor"/>
</svg>
