<svg viewBox="0 0 58 70" fill="none" xmlns="http://www.w3.org/2000/svg">
<path d="M5.5 12.5H30.5L35.5 37.5H10.5L5.5 12.5Z" stroke="currentColor" stroke-width="3"/>
<path fill-rule="evenodd" clip-rule="evenodd" d="M27.6703 36L29.0291 42.7942L29.2703 44H30.5H55.5H57.3297L56.9709 42.2058L51.9709 17.2058L51.7297 16H50.5H29.9091L30.5227 19H49.2703L53.6703 41H31.7297L30.7297 36H27.6703Z" fill="currentColor"/>
<path d="M4.5 8H6.5L17.5 68H15.5L4.5 8Z" fill="currentColor" stroke="currentColor" stroke-width="3"/>
<path d="M5 8C6.6569 8 8 6.6569 8 5C8 3.3431 6.6569 2 5 2C3.3431 2 2 3.3431 2 5C2 6.6569 3.3431 8 5 8Z" fill="currentColor" stroke="currentColor" stroke-width="3"/>
</svg>
