<svg viewBox="0 0 1903 1344" fill="none" xmlns="http://www.w3.org/2000/svg">
<path d="M906.836 1343.99C656.011 1343.99 405.863 1344.03 155.714 1343.94C133.35 1343.94 111.838 1339.63 91.2463 1330.37C69.8528 1320.75 51.8583 1306.73 36.7782 1289.15C20.2039 1269.84 8.89984 1247.49 4.24632 1222.35C1.92316 1209.8 0.197959 1196.92 0.188169 1184.18C-0.0352452 893.659 -0.0553604 603.134 0.104693 312.61C0.125221 275.342 11.3819 241.331 34.9864 212.309C56.1271 186.317 83.4985 168.823 115.894 160.182C127.069 157.201 138.986 156.112 150.602 155.846C177.43 155.232 204.282 155.651 231.124 155.651C233.326 155.651 235.529 155.651 238.225 155.651C238.225 148.41 238.718 141.656 238.109 135.003C237.224 125.337 245.947 116.708 255.271 117.666C260.142 118.166 265.107 117.754 270.709 117.754C270.709 113.869 270.684 110.334 270.713 106.799C270.78 98.8394 274.254 94.879 282.31 94.8134C305.767 94.6223 329.227 94.6431 352.684 94.811C359.323 94.8585 363.783 99.7259 364.07 106.449C364.222 110.004 364.097 113.571 364.097 117.754C369.62 117.754 374.762 118.032 379.863 117.695C389.693 117.046 396.15 124.842 396.524 133.979C396.809 140.931 396.581 147.904 396.581 155.259C467.805 155.259 538.743 155.259 610.483 155.259C614.934 135.63 619.194 115.656 624.035 95.8242C629.133 74.9402 633.459 53.7232 640.592 33.5237C646.996 15.3879 660.805 3.54698 681.031 1.38866C687.428 0.705894 693.87 0.0620392 700.292 0.0593959C870.591 -0.0122254 1040.89 0.00520412 1211.19 3.78963e-08C1242.2 -0.000908138 1260.24 16.3213 1268.01 44.8856C1275.15 71.135 1280.84 97.7783 1287.09 124.267C1289.04 132.541 1291.32 140.806 1292.35 149.209C1293.05 154.962 1295.59 155.739 1300.54 155.735C1452.12 155.632 1603.7 155.475 1755.27 155.815C1782.18 155.876 1807.35 163.915 1830.23 178.345C1856.83 195.113 1877.2 217.528 1890.01 246.319C1897.69 263.581 1902.96 281.637 1902.96 300.785C1902.99 601.008 1903.09 901.233 1902.77 1201.46C1902.75 1224.21 1894.86 1245.34 1883.74 1265.38C1875.32 1280.55 1864.62 1293.65 1851.82 1304.98C1830 1324.3 1804.99 1337.7 1775.67 1341.13C1760.43 1342.92 1745.01 1343.87 1729.68 1343.88C1455.62 1344.04 1181.57 1343.99 906.836 1343.99ZM1829.9 1168.72C1829.9 886.751 1829.91 604.781 1829.84 322.812C1829.84 314.358 1829.3 305.876 1828.48 297.458C1826.92 281.449 1819.65 267.949 1809.16 256.065C1791.97 236.598 1769.62 228.831 1744.42 228.81C1577.72 228.671 1411.02 228.738 1244.32 228.738C1242.74 228.738 1240.9 229.253 1239.64 228.619C1237.68 227.634 1234.96 226.143 1234.54 224.394C1228.42 198.755 1222.77 173.001 1216.69 147.349C1211.62 125.96 1205.41 104.811 1201.23 83.2613C1199.64 75.1168 1196.57 74.2915 1189.64 74.3061C1093.1 74.5084 996.552 74.4431 900.005 74.4431C837.521 74.4431 775.037 74.4994 712.553 74.3441C707.126 74.3306 703.957 74.9033 703.563 81.4816C703.216 87.2635 701.096 92.9428 699.723 98.6589C689.909 139.516 679.821 180.311 670.527 221.287C668.985 228.081 666.273 228.852 660.421 228.848C493.721 228.712 327.02 228.677 160.32 228.833C143.779 228.849 127.65 231.779 113.311 240.956C89.0097 256.507 74.6664 278.56 74.6371 307.501C74.3412 600.524 74.399 893.547 74.685 1186.57C74.6955 1197.33 76.6353 1208.59 80.1482 1218.76C89.9459 1247.13 119.478 1269.6 151.044 1269.6C683.402 1269.54 1215.76 1269.54 1748.12 1269.64C1762.95 1269.64 1776.65 1266.94 1789.61 1259.33C1806.24 1249.55 1817.51 1235.73 1824.58 1217.97C1830.77 1202.43 1829.85 1186.23 1829.9 1168.72Z" fill="currentColor"/>
<path d="M644.155 458.973C663.37 438.772 683.859 420.694 706.331 405.072C729.216 389.164 753.449 375.613 778.975 364.138C803.656 353.043 828.93 344.11 855.298 338.459C870.694 335.159 886.315 332.553 901.968 330.893C921.617 328.809 941.412 326.85 961.126 327.009C978.723 327.151 996.301 330.203 1013.88 332.061C1020.86 332.799 1027.81 333.782 1036.88 334.917C1029.77 341.704 1024.24 348.022 1017.7 353.014C1001.35 365.489 984.028 376.737 968.128 389.739C960.139 396.272 951.036 402.859 948.347 414.232C948.042 415.525 945.663 417.186 944.212 417.22C921.414 417.753 898.795 420.346 876.72 425.719C859.29 429.961 841.914 435.233 825.378 442.125C808.014 449.361 791.082 458.1 775.068 467.979C760.021 477.261 746.156 488.558 732.279 499.607C724.083 506.133 716.599 513.632 709.275 521.161C694.501 536.35 681.767 553.123 669.918 570.751C650.908 599.035 637.101 629.639 627.979 662.218C623.05 679.82 620.089 698.087 617.675 716.245C615.626 731.658 614.385 747.4 615.06 762.898C615.854 781.12 618.844 799.271 621.342 817.389C625.512 847.642 636.005 876.118 649.584 903.067C659.526 922.8 672.022 941.514 685.355 959.191C697.515 975.313 711.639 990.142 726.152 1004.25C743.961 1021.56 764.16 1036.24 786.123 1047.8C805.037 1057.75 824.576 1066.96 844.706 1074.02C862.456 1080.24 881.363 1083.24 899.836 1087.3C917.75 1091.25 935.982 1091.31 954.252 1091.55C983.409 1091.94 1011.92 1087.68 1039.93 1080.34C1075.49 1071.02 1108.56 1055.63 1139.16 1035.38C1163.16 1019.51 1184.86 1000.54 1203.77 978.894C1231.68 946.961 1254.29 911.599 1268.15 871.125C1268.92 868.879 1270.07 866.76 1271.1 864.611C1271.48 863.828 1272.03 863.13 1273.31 861.111C1275.77 869.044 1277.75 875.408 1279.7 881.781C1286.25 903.117 1292.65 924.498 1299.39 945.776C1302.98 957.121 1307.61 968.156 1310.73 979.615C1311.66 983 1310.06 988.125 1307.84 991.135C1297.01 1005.8 1286.1 1020.48 1274.19 1034.27C1262.89 1047.37 1251.06 1060.21 1238.1 1071.63C1223.31 1084.66 1207.56 1096.8 1191.22 1107.83C1174.3 1119.23 1156.51 1129.47 1138.49 1139.06C1114.13 1152.02 1088.07 1161.34 1061.45 1168.06C1039.67 1173.57 1017.14 1176.66 994.764 1179.13C974.84 1181.33 954.599 1182.6 934.61 1181.72C913.793 1180.81 892.98 1177.58 872.408 1173.98C855.104 1170.95 837.837 1166.9 821.127 1161.52C804.709 1156.23 788.739 1149.29 773.076 1141.99C757.55 1134.75 742.187 1126.92 727.61 1117.96C712.936 1108.93 698.92 1098.7 685.357 1088.05C673.15 1078.46 661.231 1068.29 650.442 1057.16C623.55 1029.42 599.639 999.312 580.816 965.318C565.734 938.078 553.248 909.922 544.037 880.058C536.995 857.227 532.144 834.063 528.367 810.633C526.394 798.399 525.984 785.864 525.558 773.44C525.101 760.148 524.521 746.746 525.671 733.538C527.445 713.161 529.77 692.744 533.5 672.649C536.902 654.316 541.505 636.067 547.313 618.35C558.39 584.564 573.24 552.357 593.744 523.16C605.966 505.755 619.29 489.12 632.289 472.271C635.812 467.704 639.957 463.618 644.155 458.973Z" fill="currentColor"/>
<path d="M1186.04 245.874C1188.13 251.219 1190.01 256.084 1191.55 261.055C1196.93 278.445 1202.17 295.877 1207.51 313.282C1210.73 323.804 1213.34 334.584 1217.55 344.705C1219.89 350.354 1224.31 355.578 1228.93 359.747C1233.89 364.222 1240.32 367.036 1245.86 370.924C1262.18 382.376 1278.45 393.896 1294.58 405.607C1301.77 410.829 1308.82 416.312 1315.39 422.268C1316.93 423.662 1317.55 428.889 1316.41 429.894C1311.51 434.214 1305.63 437.404 1300.41 441.408C1293.24 446.911 1286.41 452.842 1279.33 458.466C1275.33 461.647 1271.11 464.554 1267.03 467.634C1259.06 473.64 1251.18 479.77 1243.15 485.682C1235.52 491.294 1227.64 496.573 1220.08 502.27C1218.22 503.67 1216.51 505.933 1215.84 508.133C1210.94 524.318 1206.42 540.615 1201.6 556.824C1197.29 571.312 1192.76 585.737 1188.3 600.18C1184.08 613.842 1179.84 627.496 1175.57 641.143C1171.23 654.992 1166.9 668.841 1162.49 682.667C1158.47 695.261 1154.45 707.854 1150.24 720.385C1148.87 724.491 1147.21 728.574 1145.09 732.334C1143.94 734.365 1141.34 737.199 1139.75 736.989C1137.28 736.663 1133.7 734.48 1133.05 732.34C1129.75 721.55 1127.57 710.423 1124.35 699.605C1121.7 690.687 1117.8 682.14 1115.06 673.243C1108.94 653.358 1103.25 633.34 1097.28 613.409C1093.3 600.134 1089.2 586.896 1085.04 573.677C1080.61 559.631 1075.96 545.654 1071.58 531.595C1068.68 522.293 1067.03 512.462 1062.96 503.723C1060.81 499.094 1054.88 496.04 1050.34 492.71C1035.98 482.19 1021.39 471.981 1007.05 461.442C998.684 455.29 990.703 448.615 982.371 442.41C977.136 438.512 971.592 435.02 966.152 431.397C961.378 428.217 962.178 421.711 967.53 417.938C978.099 410.486 988.532 402.842 998.997 395.244C1010.73 386.727 1022.64 378.441 1034.07 369.546C1042.1 363.302 1050.27 356.895 1056.81 349.239C1060.81 344.559 1062.19 337.48 1064.17 331.297C1069.54 314.576 1074.49 297.724 1079.81 280.988C1084.34 266.736 1089.03 252.533 1093.86 238.38C1098.48 224.855 1103.48 211.456 1108.12 197.94C1112.35 185.645 1116.28 173.253 1120.43 160.929C1124.91 147.579 1129.22 134.158 1134.29 121.029C1135.11 118.904 1136.04 114.838 1140.87 115.005C1147.38 115.23 1147.45 121.184 1148.55 124.215C1153.08 136.62 1156.04 149.582 1159.84 162.261C1163.75 175.33 1167.99 188.301 1172.04 201.33C1176.61 216.026 1181.13 230.738 1186.04 245.874ZM1118.38 504.71C1125.27 526.306 1132.17 547.902 1139.06 569.498C1139.75 569.595 1140.44 569.691 1141.13 569.788C1143.74 562.683 1146.66 555.673 1148.88 548.451C1152.32 537.26 1155.13 525.877 1158.5 514.663C1161.92 503.263 1165.66 491.954 1169.35 480.634C1171.18 475.007 1172.48 469.34 1178.08 465.491C1188.84 458.109 1199.09 449.99 1209.61 442.273C1216.65 437.111 1223.82 432.114 1231.91 426.34C1223.86 420.557 1216.77 415.546 1209.77 410.413C1200.83 403.858 1191.61 397.612 1183.18 390.457C1177.3 385.467 1169.23 382.096 1168.04 372.74C1167.41 367.838 1165.75 363.039 1164.27 358.281C1162.48 352.536 1160.15 346.953 1158.49 341.177C1153.39 323.482 1148.51 305.722 1143.47 288.01C1143.05 286.544 1142.01 285.253 1140.58 282.62C1137.21 292.508 1134.1 300.75 1131.61 309.173C1126.34 327.007 1121.03 344.846 1116.42 362.856C1113.31 375.004 1107.61 384.564 1095.73 389.826C1093.82 390.672 1092.27 392.333 1090.56 393.619C1083.25 399.098 1075.96 404.598 1068.63 410.051C1062.8 414.387 1056.84 418.556 1051.21 423.122C1050.57 423.639 1051.06 426.89 1052.03 427.777C1055.27 430.729 1058.9 433.294 1062.52 435.792C1066.48 438.518 1070.81 440.738 1074.61 443.652C1081.49 448.933 1087.42 455.945 1095.01 459.702C1104.57 464.432 1108.37 472.596 1111.8 481.093C1114.69 488.284 1115.83 496.177 1118.38 504.71Z" fill="currentColor"/>
<path d="M1628.35 296.003C1636.57 296.45 1644.15 296.601 1651.65 297.412C1663.81 298.725 1671.63 313.664 1671.69 321.991C1671.87 346.542 1672.36 371.115 1671.54 395.64C1671 411.753 1660.62 422.59 1644.38 422.695C1568.7 423.184 1493.01 422.961 1417.33 422.866C1403.49 422.849 1391.13 410.112 1391.06 396.103C1390.96 372.006 1391.01 347.908 1391.04 323.811C1391.07 307.462 1402.56 296.013 1418.92 296.009C1488.51 295.994 1558.09 296.003 1628.35 296.003Z" fill="currentColor"/>
<path d="M1288.56 721.459C1292.47 709.022 1296.49 697.161 1300.23 685.212C1304.15 672.677 1307.53 659.966 1311.67 647.505C1315.23 636.789 1319.8 626.413 1323.43 615.716C1328.27 601.412 1332.63 586.942 1337.21 572.548C1337.47 571.725 1337.64 570.743 1338.2 570.165C1340.82 567.438 1338.37 561.181 1344.62 561.004C1351.31 560.815 1350.63 567.157 1351.73 570.459C1356.89 586.047 1360.82 602.038 1365.65 617.743C1369.59 630.528 1374.35 643.057 1378.4 655.808C1380.37 661.989 1381.37 668.473 1383.17 674.713C1384.36 678.818 1386.36 682.68 1387.73 686.741C1391.65 698.368 1396.3 709.852 1398.86 721.78C1400.01 727.101 1403.6 728.604 1406.48 730.84C1419.29 740.777 1432.55 750.136 1445.7 759.627C1450.96 763.429 1456.37 767.037 1461.72 770.721C1468.96 775.7 1468.65 780.362 1461.44 785.63C1445.55 797.252 1429.91 809.206 1414.12 820.967C1411.09 823.222 1407.84 825.171 1404.74 827.337C1393.81 834.978 1393.82 847.833 1389.87 858.794C1387.99 864.041 1386.16 869.317 1384.51 874.645C1383.31 878.558 1382.55 882.609 1381.4 886.543C1377.96 898.366 1374.47 910.176 1370.91 921.965C1368.6 929.625 1366.17 937.25 1363.74 944.873C1360.32 955.585 1356.88 966.292 1353.39 976.979C1351.77 981.907 1350.25 986.891 1348.15 991.618C1347.45 993.199 1344.82 995.276 1343.62 994.97C1341.69 994.478 1339.33 992.488 1338.7 990.61C1334.02 976.687 1329.73 962.637 1325.32 948.625C1320.33 932.748 1315.09 916.94 1310.41 900.97C1305.54 884.389 1301.25 867.639 1296.64 850.984C1294.96 844.944 1293.89 838.514 1290.96 833.118C1288.97 829.44 1284.33 827.13 1280.72 824.413C1268.45 815.171 1256.13 805.998 1243.79 796.842C1237.37 792.075 1230.75 787.57 1224.47 782.623C1219.75 778.901 1219.87 775.479 1224.68 771.853C1234.87 764.176 1245.39 756.922 1255.44 749.068C1266.67 740.29 1277.53 731.04 1288.56 721.459ZM1375.82 754.461C1371.87 750.562 1366.13 747.353 1364.31 742.63C1359.73 730.768 1356.99 718.199 1353.37 705.958C1350.79 697.272 1347.97 688.659 1345.03 679.263C1342.97 685.416 1341.14 690.705 1339.43 696.035C1338.19 699.93 1337.08 703.871 1335.95 707.803C1333.19 717.367 1331.02 727.152 1327.5 736.424C1325.46 741.801 1322.23 747.575 1317.86 751.047C1306.22 760.287 1293.67 768.375 1281.54 776.885C1289.45 783.179 1296.23 790.166 1304.38 794.671C1315.9 801.038 1323.72 808.825 1326.68 822.289C1330.07 837.66 1335.28 852.642 1340.04 867.684C1340.93 870.494 1343.45 872.787 1345.45 875.661C1348.79 865.09 1351.85 855.62 1354.76 846.106C1357.1 838.474 1359.04 830.713 1361.57 823.151C1363.48 817.48 1365.01 811.184 1368.62 806.72C1372.47 801.956 1378.6 799.051 1383.68 795.272C1391.2 789.686 1398.68 784.043 1406.35 778.293C1403.8 776.254 1401.87 774.723 1399.95 773.172C1392.26 766.96 1384.58 760.741 1375.82 754.461Z" fill="currentColor"/>
<path d="M1233.79 568.43C1231.36 564.966 1229.11 561.99 1227.17 558.824C1226.43 557.608 1225.69 555.686 1226.13 554.549C1230.92 542.262 1234.7 529.332 1241.33 518.106C1245.73 510.664 1254.02 505.35 1261.08 499.722C1268.24 494.009 1276.02 489.081 1284.69 483C1298.08 503.461 1311.42 523.731 1324.63 544.086C1327.55 548.587 1328.47 552.379 1323.31 557.106C1313.32 566.278 1310.28 579.564 1306.05 591.89C1298.44 614.054 1291.36 636.402 1283.73 658.562C1282.97 660.798 1280.01 662.279 1277.13 665C1267.53 629.316 1252.95 598.102 1233.79 568.43Z" fill="currentColor"/>
<path d="M589.876 381.068C573.364 398.066 553.793 403.239 532.361 395.473C513.582 388.668 501.9 374.659 498.708 353.879C496.021 336.379 501.045 321.532 512.705 309.212C527.17 293.929 545.787 289.772 565.379 295.391C584.804 300.961 596.88 315.014 601.65 335.044C605.757 352.291 600.115 367.037 589.876 381.068Z" fill="currentColor"/>
</svg>